<svg xmlns="http://www.w3.org/2000/svg" width="131.75" height="34.84" viewBox="0 0 131.75 34.84"><defs><style>.cls-1{fill:#fff;fill-rule:evenodd}</style></defs><path id="Эллипс_1052" data-name="Эллипс 1052" class="cls-1" d="M2042.3 2119.01a12.756 12.756 0 0 0 4.81-.87 10.4 10.4 0 0 0 3.69-2.48 11.122 11.122 0 0 0 2.36-3.89 14.807 14.807 0 0 0 .83-5.09v-1.29a14.765 14.765 0 0 0-.84-5.11 11.391 11.391 0 0 0-2.35-3.9 10.284 10.284 0 0 0-3.62-2.49 12.141 12.141 0 0 0-4.67-.88h-10.52v26h10.31zm.21-22.35a6.313 6.313 0 0 1 5.23 2.23q1.815 2.235 1.81 6.46v1.33a13.776 13.776 0 0 1-.46 3.66 7.609 7.609 0 0 1-1.35 2.75 5.962 5.962 0 0 1-2.27 1.72 7.8 7.8 0 0 1-3.17.6h-5.88v-18.75h6.09zm25.41 21.74a8.766 8.766 0 0 0 2.05-.81 7.521 7.521 0 0 0 1.58-1.14 7.609 7.609 0 0 0 1.13-1.33l-2.3-2.19a6.723 6.723 0 0 1-2.03 1.74 5.726 5.726 0 0 1-2.75.63 5.02 5.02 0 0 1-2.02-.39 4.716 4.716 0 0 1-1.53-1.06 4.884 4.884 0 0 1-1.03-1.61 8.777 8.777 0 0 1-.02-2.24h12l-.02-1.63a13.671 13.671 0 0 0-.49-3.78 8.488 8.488 0 0 0-1.5-2.97 6.7 6.7 0 0 0-2.53-1.94 8.693 8.693 0 0 0-3.6-.69 8.273 8.273 0 0 0-3.38.69 8.093 8.093 0 0 0-2.74 1.97 9.448 9.448 0 0 0-1.83 3.09 11.9 11.9 0 0 0-.66 4.07v.71a10.256 10.256 0 0 0 .63 3.63 8.267 8.267 0 0 0 4.67 4.86 10.009 10.009 0 0 0 3.8.7 9.681 9.681 0 0 0 2.57-.31zm-1.29-15.63a3.421 3.421 0 0 1 1.18.97 4.191 4.191 0 0 1 .68 1.39 7.212 7.212 0 0 1 .27 1.63v.31h-8.14a6.446 6.446 0 0 1 1.38-3.43 3.6 3.6 0 0 1 2.84-1.23 4.051 4.051 0 0 1 1.79.36zm26.11 15.59v-.3a9.756 9.756 0 0 1-.72-4.1v-8.43a6.852 6.852 0 0 0-.55-2.86 5.547 5.547 0 0 0-1.53-2.04 6.694 6.694 0 0 0-2.34-1.23 9.878 9.878 0 0 0-2.95-.41 10.018 10.018 0 0 0-3.24.49 7.939 7.939 0 0 0-2.47 1.31 5.741 5.741 0 0 0-1.57 1.86 4.584 4.584 0 0 0-.56 2.17h4.27a2.25 2.25 0 0 1 .24-1.02 2.367 2.367 0 0 1 .67-.81 3.421 3.421 0 0 1 1.04-.55 4.551 4.551 0 0 1 1.38-.2 3.243 3.243 0 0 1 2.51.89 3.331 3.331 0 0 1 .83 2.36v1.25h-2.69a15.024 15.024 0 0 0-3.67.41 8.049 8.049 0 0 0-2.71 1.21 5.129 5.129 0 0 0-1.69 1.96 6.033 6.033 0 0 0-.58 2.71 5.282 5.282 0 0 0 .48 2.25 5.507 5.507 0 0 0 1.34 1.8 6.253 6.253 0 0 0 2.04 1.2 7.621 7.621 0 0 0 2.62.43 7.1 7.1 0 0 0 1.56-.17 6.685 6.685 0 0 0 1.35-.45 6.832 6.832 0 0 0 1.15-.68 8.321 8.321 0 0 0 .94-.83 9.111 9.111 0 0 0 .2.99 3.174 3.174 0 0 0 .29.79h4.36zm-10.35-3.28a2.83 2.83 0 0 1-.94-.56 2.3 2.3 0 0 1-.58-.86 2.831 2.831 0 0 1-.19-1.07 2.7 2.7 0 0 1 1.19-2.34 6.324 6.324 0 0 1 3.57-.82h2.31v3.58a4.216 4.216 0 0 1-.62.84 4.417 4.417 0 0 1-.91.73 4.906 4.906 0 0 1-1.16.51 4.651 4.651 0 0 1-1.38.19 3.883 3.883 0 0 1-1.29-.2zM2102 2091h-4v24l4 3v-27zm9.67 8.34h-4.27v19.02h4.27v-19.02zm-3.91-3.33a2.352 2.352 0 0 0 1.78.64 2.391 2.391 0 0 0 1.79-.64 2.186 2.186 0 0 0 .64-1.61 2.239 2.239 0 0 0-.64-1.64 2.4 2.4 0 0 0-1.79-.65 2.357 2.357 0 0 0-1.78.65 2.272 2.272 0 0 0-.63 1.64 2.218 2.218 0 0 0 .63 1.61zm9.22 3.33v19.02h4.27v-13.54a4.541 4.541 0 0 1 1.55-1.7 4.157 4.157 0 0 1 2.3-.64 5.158 5.158 0 0 1 1.43.19 2.354 2.354 0 0 1 1.05.61 2.718 2.718 0 0 1 .64 1.09 5.729 5.729 0 0 1 .22 1.67v12.32h4.27v-12.29a11.222 11.222 0 0 0-.43-3.29 5.769 5.769 0 0 0-1.22-2.19 4.666 4.666 0 0 0-1.91-1.23 7.8 7.8 0 0 0-2.49-.37 7.282 7.282 0 0 0-3.13.66 7.034 7.034 0 0 0-2.41 1.89l-.12-2.2h-4.02zm20.05 9.74a13.449 13.449 0 0 0 .53 3.84 9.282 9.282 0 0 0 1.52 3.05 7.319 7.319 0 0 0 2.39 2.01 6.639 6.639 0 0 0 3.14.73 7.042 7.042 0 0 0 2.81-.53 5.994 5.994 0 0 0 2.11-1.53v1.29a4.42 4.42 0 0 1-1.23 3.38 4.71 4.71 0 0 1-3.36 1.15 6.361 6.361 0 0 1-2.56-.54 6.442 6.442 0 0 1-2.29-1.8l-2.02 2.57a6.076 6.076 0 0 0 1.53 1.46 9.306 9.306 0 0 0 1.88.97 9.87 9.87 0 0 0 1.95.55 10.527 10.527 0 0 0 1.76.17 10.823 10.823 0 0 0 3.49-.54 7.666 7.666 0 0 0 2.72-1.56 6.887 6.887 0 0 0 1.77-2.51 8.712 8.712 0 0 0 .63-3.41v-18.49h-3.85l-.19 1.91a6.134 6.134 0 0 0-2.15-1.67 6.785 6.785 0 0 0-2.97-.59 6.955 6.955 0 0 0-3.16.7 6.854 6.854 0 0 0-2.4 1.99 9.194 9.194 0 0 0-1.52 3.07 14.1 14.1 0 0 0-.53 3.96v.37zm4.26-.37a10.441 10.441 0 0 1 .26-2.42 6.184 6.184 0 0 1 .8-1.98 4.079 4.079 0 0 1 1.38-1.33 3.88 3.88 0 0 1 2-.5 4.3 4.3 0 0 1 2.31.58 4.385 4.385 0 0 1 1.49 1.59v8.36a4.593 4.593 0 0 1-1.48 1.61 4.123 4.123 0 0 1-2.35.61 3.884 3.884 0 0 1-1.99-.48 4.142 4.142 0 0 1-1.37-1.33 6.163 6.163 0 0 1-.8-1.96 10.724 10.724 0 0 1-.25-2.38v-.37zm22.16-9.37h-4.27v19.02h4.27v-19.02zm-3.91-3.33a2.367 2.367 0 0 0 1.78.64 2.415 2.415 0 0 0 1.8-.64 2.218 2.218 0 0 0 .63-1.61 2.272 2.272 0 0 0-.63-1.64 2.42 2.42 0 0 0-1.8-.65 2.372 2.372 0 0 0-1.78.65 2.264 2.264 0 0 0-.62 1.64 2.21 2.21 0 0 0 .62 1.61zM2102.5 2111a4.5 4.5 0 1 1-4.5 4.5 4.494 4.494 0 0 1 4.5-4.5zm4.5 0v8l-.95-3.06-.3-.97a3.487 3.487 0 0 1-1.75 1.03 2.006 2.006 0 0 1-2-2v-3h5z" transform="translate(-2032 -2091)"/></svg>